<svg width="358" height="47" viewBox="0 0 358 47" fill="none" xmlns="http://www.w3.org/2000/svg">
  <path d="M8.66828 38V15.68H0.928283V13.448H19.0723V15.68H11.3323V38H8.66828Z" fill="#265C81"/>
  <path d="M39.5268 38L37.0068 31.124H26.8188L24.5508 38H21.8508L30.5628 13.448H33.0828L42.0468 38H39.5268ZM27.6468 28.892H36.1788L31.7868 16.976L27.6468 28.892Z" fill="#927223"/>
  <path d="M47.1573 38V13.448H50.0373L62.5293 33.932V13.448H65.2293V38H62.3493L49.8573 17.588V38H47.1573Z" fill="#3D723B"/>
  <path d="M80.9653 38.576C78.9013 38.576 77.1133 38.072 75.6013 37.064C74.1133 36.032 72.9613 34.568 72.1453 32.672C71.3533 30.752 70.9573 28.46 70.9573 25.796C70.9573 23.108 71.3533 20.804 72.1453 18.884C72.9613 16.94 74.1133 15.464 75.6013 14.456C77.1133 13.424 78.9013 12.908 80.9653 12.908C82.8613 12.908 84.4933 13.34 85.8613 14.204C87.2533 15.044 88.4413 16.292 89.4253 17.948L87.3013 19.46C85.7893 16.724 83.6773 15.356 80.9653 15.356C78.7093 15.356 76.9453 16.28 75.6733 18.128C74.4253 19.952 73.8013 22.496 73.8013 25.76C73.8013 29 74.4373 31.544 75.7093 33.392C76.9813 35.216 78.7333 36.128 80.9653 36.128C82.2133 36.128 83.3293 35.828 84.3133 35.228C85.3213 34.628 86.1133 33.74 86.6893 32.564C87.2653 31.388 87.5533 29.948 87.5533 28.244H81.7573V26.012H90.2173V28.244C90.2173 30.476 89.8213 32.372 89.0293 33.932C88.2373 35.468 87.1333 36.632 85.7173 37.424C84.3253 38.192 82.7413 38.576 80.9653 38.576Z" fill="#8C3344"/>
  <path d="M106.073 38.576C104.033 38.576 102.209 38.036 100.601 36.956C99.0173 35.852 97.7693 34.328 96.8573 32.384C95.9693 30.44 95.5253 28.232 95.5253 25.76C95.5253 23.288 95.9693 21.08 96.8573 19.136C97.7693 17.168 99.0173 15.644 100.601 14.564C102.209 13.46 104.033 12.908 106.073 12.908C108.113 12.908 109.925 13.46 111.509 14.564C113.117 15.644 114.365 17.168 115.253 19.136C116.165 21.08 116.621 23.3 116.621 25.796C116.621 28.268 116.165 30.476 115.253 32.42C114.365 34.34 113.117 35.852 111.509 36.956C109.925 38.036 108.113 38.576 106.073 38.576ZM106.073 36.092C107.561 36.092 108.893 35.66 110.069 34.796C111.269 33.908 112.205 32.684 112.877 31.124C113.549 29.54 113.885 27.752 113.885 25.76C113.885 23.768 113.549 21.98 112.877 20.396C112.205 18.812 111.269 17.576 110.069 16.688C108.893 15.8 107.561 15.356 106.073 15.356C104.585 15.356 103.241 15.8 102.041 16.688C100.865 17.576 99.9413 18.812 99.2693 20.396C98.5973 21.98 98.2613 23.768 98.2613 25.76C98.2613 27.752 98.5973 29.54 99.2693 31.124C99.9413 32.684 100.865 33.908 102.041 34.796C103.241 35.66 104.585 36.092 106.073 36.092Z" fill="#664B7B"/>
  <path d="M142.22 22V13.32H139.21V12.452H146.266V13.32H143.256V22H142.22ZM149.659 22.224C149.033 22.224 148.473 22.0747 147.979 21.776C147.484 21.4773 147.097 21.062 146.817 20.53C146.537 19.9887 146.397 19.382 146.397 18.71C146.397 18.038 146.532 17.4407 146.803 16.918C147.083 16.386 147.465 15.9707 147.951 15.672C148.445 15.3733 149.005 15.224 149.631 15.224C150.256 15.224 150.816 15.3733 151.311 15.672C151.805 15.9707 152.193 16.386 152.473 16.918C152.753 17.45 152.893 18.052 152.893 18.724C152.893 19.396 152.753 19.998 152.473 20.53C152.202 21.062 151.819 21.4773 151.325 21.776C150.839 22.0747 150.284 22.224 149.659 22.224ZM149.631 21.356C150.079 21.356 150.475 21.244 150.821 21.02C151.175 20.796 151.451 20.4833 151.647 20.082C151.843 19.6807 151.941 19.228 151.941 18.724C151.941 18.22 151.843 17.7673 151.647 17.366C151.451 16.9647 151.175 16.652 150.821 16.428C150.475 16.204 150.079 16.092 149.631 16.092C149.192 16.092 148.8 16.204 148.455 16.428C148.109 16.652 147.839 16.9647 147.643 17.366C147.447 17.758 147.349 18.206 147.349 18.71C147.349 19.2233 147.447 19.6807 147.643 20.082C147.839 20.4833 148.109 20.796 148.455 21.02C148.8 21.244 149.192 21.356 149.631 21.356ZM158.16 15.224C158.384 15.224 158.599 15.2567 158.804 15.322V16.19C158.608 16.0967 158.394 16.05 158.16 16.05C157.759 16.05 157.386 16.162 157.04 16.386C156.695 16.61 156.415 16.9367 156.2 17.366C155.995 17.786 155.892 18.2853 155.892 18.864V22H154.94V15.448H155.892V16.764C156.144 16.2787 156.462 15.9007 156.844 15.63C157.236 15.3593 157.675 15.224 158.16 15.224ZM163.104 22.224C162.478 22.224 161.918 22.0747 161.424 21.776C160.929 21.4773 160.542 21.062 160.262 20.53C159.982 19.9887 159.842 19.382 159.842 18.71C159.842 18.038 159.977 17.4407 160.248 16.918C160.528 16.386 160.91 15.9707 161.396 15.672C161.89 15.3733 162.45 15.224 163.076 15.224C163.701 15.224 164.261 15.3733 164.756 15.672C165.25 15.9707 165.638 16.386 165.918 16.918C166.198 17.45 166.338 18.052 166.338 18.724C166.338 19.396 166.198 19.998 165.918 20.53C165.647 21.062 165.264 21.4773 164.77 21.776C164.284 22.0747 163.729 22.224 163.104 22.224ZM163.076 21.356C163.524 21.356 163.92 21.244 164.266 21.02C164.62 20.796 164.896 20.4833 165.092 20.082C165.288 19.6807 165.386 19.228 165.386 18.724C165.386 18.22 165.288 17.7673 165.092 17.366C164.896 16.9647 164.62 16.652 164.266 16.428C163.92 16.204 163.524 16.092 163.076 16.092C162.637 16.092 162.245 16.204 161.9 16.428C161.554 16.652 161.284 16.9647 161.088 17.366C160.892 17.758 160.794 18.206 160.794 18.71C160.794 19.2233 160.892 19.6807 161.088 20.082C161.284 20.4833 161.554 20.796 161.9 21.02C162.245 21.244 162.637 21.356 163.076 21.356ZM171.507 15.224C171.964 15.224 172.384 15.3173 172.767 15.504C173.159 15.6907 173.467 15.966 173.691 16.33C173.924 16.694 174.041 17.1233 174.041 17.618V22H173.089V18.038C173.089 16.7407 172.51 16.092 171.353 16.092C170.681 16.092 170.177 16.33 169.841 16.806C169.505 17.282 169.337 17.9213 169.337 18.724V22H168.385V15.448H169.337V16.54C169.561 16.12 169.855 15.798 170.219 15.574C170.592 15.3407 171.022 15.224 171.507 15.224ZM176.955 22V16.316H175.835V15.448H176.955V13.278H177.907V15.448H179.419V16.316H177.907V22H176.955ZM184.016 22.224C183.391 22.224 182.831 22.0747 182.336 21.776C181.841 21.4773 181.454 21.062 181.174 20.53C180.894 19.9887 180.754 19.382 180.754 18.71C180.754 18.038 180.889 17.4407 181.16 16.918C181.44 16.386 181.823 15.9707 182.308 15.672C182.803 15.3733 183.363 15.224 183.988 15.224C184.613 15.224 185.173 15.3733 185.668 15.672C186.163 15.9707 186.55 16.386 186.83 16.918C187.11 17.45 187.25 18.052 187.25 18.724C187.25 19.396 187.11 19.998 186.83 20.53C186.559 21.062 186.177 21.4773 185.682 21.776C185.197 22.0747 184.641 22.224 184.016 22.224ZM183.988 21.356C184.436 21.356 184.833 21.244 185.178 21.02C185.533 20.796 185.808 20.4833 186.004 20.082C186.2 19.6807 186.298 19.228 186.298 18.724C186.298 18.22 186.2 17.7673 186.004 17.366C185.808 16.9647 185.533 16.652 185.178 16.428C184.833 16.204 184.436 16.092 183.988 16.092C183.549 16.092 183.157 16.204 182.812 16.428C182.467 16.652 182.196 16.9647 182 17.366C181.804 17.758 181.706 18.206 181.706 18.71C181.706 19.2233 181.804 19.6807 182 20.082C182.196 20.4833 182.467 20.796 182.812 21.02C183.157 21.244 183.549 21.356 183.988 21.356ZM199.275 22L198.295 19.326H194.333L193.451 22H192.401L195.789 12.452H196.769L200.255 22H199.275ZM194.655 18.458H197.973L196.265 13.824L194.655 18.458ZM202.354 22V16.316H201.234V15.448H202.354V13.278H203.306V15.448H204.818V16.316H203.306V22H202.354ZM206.63 22V11.836H207.582V22H206.63ZM216.193 15.448V22H215.241V21.034C214.971 21.4073 214.639 21.7013 214.247 21.916C213.855 22.1213 213.426 22.224 212.959 22.224C212.334 22.224 211.774 22.0747 211.279 21.776C210.785 21.4773 210.397 21.062 210.117 20.53C209.837 19.998 209.697 19.3913 209.697 18.71C209.697 18.038 209.833 17.4407 210.103 16.918C210.383 16.386 210.766 15.9707 211.251 15.672C211.746 15.3733 212.306 15.224 212.931 15.224C213.407 15.224 213.841 15.3313 214.233 15.546C214.635 15.7513 214.971 16.0453 215.241 16.428V15.448H216.193ZM212.931 21.356C213.379 21.356 213.776 21.244 214.121 21.02C214.476 20.796 214.751 20.4833 214.947 20.082C215.143 19.6807 215.241 19.228 215.241 18.724C215.241 18.22 215.143 17.7673 214.947 17.366C214.751 16.9647 214.476 16.652 214.121 16.428C213.776 16.204 213.379 16.092 212.931 16.092C212.493 16.092 212.101 16.204 211.755 16.428C211.41 16.652 211.139 16.9647 210.943 17.366C210.747 17.758 210.649 18.206 210.649 18.71C210.649 19.2233 210.747 19.6807 210.943 20.082C211.139 20.4833 211.41 20.796 211.755 21.02C212.101 21.244 212.493 21.356 212.931 21.356ZM220.961 22.224C220.326 22.224 219.766 22.0887 219.281 21.818C218.805 21.5473 218.441 21.1647 218.189 20.67L219.043 20.25C219.388 20.9873 220.065 21.356 221.073 21.356C221.558 21.356 221.96 21.2673 222.277 21.09C222.594 20.9127 222.753 20.6373 222.753 20.264C222.753 19.8813 222.622 19.5967 222.361 19.41C222.109 19.2233 221.661 19.102 221.017 19.046C220.121 18.9713 219.477 18.7707 219.085 18.444C218.702 18.1173 218.511 17.6833 218.511 17.142C218.511 16.5353 218.73 16.064 219.169 15.728C219.608 15.392 220.21 15.224 220.975 15.224C222.272 15.224 223.154 15.7373 223.621 16.764L222.767 17.184C222.608 16.8107 222.375 16.5353 222.067 16.358C221.768 16.1807 221.381 16.092 220.905 16.092C220.42 16.092 220.046 16.1807 219.785 16.358C219.533 16.5353 219.407 16.7873 219.407 17.114C219.407 17.422 219.542 17.674 219.813 17.87C220.093 18.0567 220.569 18.178 221.241 18.234C222.072 18.3087 222.688 18.514 223.089 18.85C223.5 19.1767 223.705 19.6107 223.705 20.152C223.705 20.5907 223.579 20.9687 223.327 21.286C223.075 21.594 222.739 21.8273 222.319 21.986C221.899 22.1447 221.446 22.224 220.961 22.224ZM232.518 22.224C231.893 22.224 231.333 22.0747 230.838 21.776C230.344 21.4773 229.956 21.062 229.676 20.53C229.396 19.9887 229.256 19.382 229.256 18.71C229.256 18.038 229.392 17.4407 229.662 16.918C229.942 16.386 230.325 15.9707 230.81 15.672C231.305 15.3733 231.865 15.224 232.49 15.224C233.116 15.224 233.676 15.3733 234.17 15.672C234.665 15.9707 235.052 16.386 235.332 16.918C235.612 17.45 235.752 18.052 235.752 18.724C235.752 19.396 235.612 19.998 235.332 20.53C235.062 21.062 234.679 21.4773 234.184 21.776C233.699 22.0747 233.144 22.224 232.518 22.224ZM232.49 21.356C232.938 21.356 233.335 21.244 233.68 21.02C234.035 20.796 234.31 20.4833 234.506 20.082C234.702 19.6807 234.8 19.228 234.8 18.724C234.8 18.22 234.702 17.7673 234.506 17.366C234.31 16.9647 234.035 16.652 233.68 16.428C233.335 16.204 232.938 16.092 232.49 16.092C232.052 16.092 231.66 16.204 231.314 16.428C230.969 16.652 230.698 16.9647 230.502 17.366C230.306 17.758 230.208 18.206 230.208 18.71C230.208 19.2233 230.306 19.6807 230.502 20.082C230.698 20.4833 230.969 20.796 231.314 21.02C231.66 21.244 232.052 21.356 232.49 21.356ZM240.222 12.466C239.895 12.466 239.625 12.578 239.41 12.802C239.205 13.026 239.102 13.3153 239.102 13.67V15.448H240.614V16.316H239.102V22H238.15V16.316H237.31V15.448H238.15V13.67C238.15 13.0633 238.341 12.5687 238.724 12.186C239.116 11.794 239.615 11.598 240.222 11.598H240.614V12.466H240.222ZM249.213 22V12.452H250.333L255.191 20.418V12.452H256.241V22H255.121L250.263 14.062V22H249.213ZM261.773 15.224C262.361 15.224 262.893 15.3687 263.369 15.658C263.845 15.9473 264.218 16.344 264.489 16.848C264.76 17.3427 264.895 17.898 264.895 18.514C264.895 18.6913 264.89 18.8267 264.881 18.92H259.491C259.528 19.592 259.748 20.166 260.149 20.642C260.55 21.118 261.096 21.356 261.787 21.356C262.347 21.356 262.809 21.2533 263.173 21.048C263.546 20.8333 263.845 20.5393 264.069 20.166L264.825 20.67C264.517 21.1553 264.111 21.538 263.607 21.818C263.103 22.0887 262.506 22.224 261.815 22.224C261.18 22.224 260.616 22.0747 260.121 21.776C259.626 21.4773 259.239 21.062 258.959 20.53C258.679 19.998 258.539 19.396 258.539 18.724C258.539 18.052 258.674 17.45 258.945 16.918C259.225 16.386 259.608 15.9707 260.093 15.672C260.588 15.3733 261.148 15.224 261.773 15.224ZM263.943 18.136C263.85 17.4547 263.621 16.946 263.257 16.61C262.893 16.2647 262.398 16.092 261.773 16.092C261.166 16.092 260.667 16.288 260.275 16.68C259.892 17.0627 259.65 17.548 259.547 18.136H263.943ZM267.518 22V15.448H268.47V22H267.518ZM267.994 14.174C267.78 14.174 267.598 14.0993 267.448 13.95C267.308 13.8007 267.238 13.6187 267.238 13.404C267.238 13.1987 267.308 13.026 267.448 12.886C267.598 12.7367 267.78 12.662 267.994 12.662C268.2 12.662 268.377 12.7367 268.526 12.886C268.676 13.026 268.75 13.2033 268.75 13.418C268.75 13.6233 268.676 13.8007 268.526 13.95C268.377 14.0993 268.2 14.174 267.994 14.174ZM277.536 15.448V21.748C277.536 22.336 277.415 22.8587 277.172 23.316C276.93 23.7827 276.589 24.1467 276.15 24.408C275.712 24.6693 275.212 24.8 274.652 24.8H271.936V23.932H274.652C275.222 23.932 275.684 23.7267 276.038 23.316C276.402 22.9053 276.584 22.3827 276.584 21.748V21.034C276.314 21.4073 275.982 21.7013 275.59 21.916C275.198 22.1213 274.769 22.224 274.302 22.224C273.677 22.224 273.117 22.0747 272.622 21.776C272.128 21.4773 271.74 21.062 271.46 20.53C271.18 19.998 271.04 19.3913 271.04 18.71C271.04 18.038 271.176 17.4407 271.446 16.918C271.726 16.386 272.109 15.9707 272.594 15.672C273.089 15.3733 273.649 15.224 274.274 15.224C274.75 15.224 275.184 15.3313 275.576 15.546C275.978 15.7513 276.314 16.0453 276.584 16.428V15.448H277.536ZM274.274 21.356C274.722 21.356 275.119 21.244 275.464 21.02C275.819 20.796 276.094 20.4833 276.29 20.082C276.486 19.6807 276.584 19.228 276.584 18.724C276.584 18.22 276.486 17.7673 276.29 17.366C276.094 16.9647 275.819 16.652 275.464 16.428C275.119 16.204 274.722 16.092 274.274 16.092C273.836 16.092 273.444 16.204 273.098 16.428C272.753 16.652 272.482 16.9647 272.286 17.366C272.09 17.758 271.992 18.206 271.992 18.71C271.992 19.2233 272.09 19.6807 272.286 20.082C272.482 20.4833 272.753 20.796 273.098 21.02C273.444 21.244 273.836 21.356 274.274 21.356ZM283.116 15.224C283.573 15.224 283.993 15.3173 284.376 15.504C284.768 15.6907 285.076 15.966 285.3 16.33C285.533 16.694 285.65 17.1233 285.65 17.618V22H284.698V18.038C284.698 16.7407 284.119 16.092 282.962 16.092C282.29 16.092 281.786 16.33 281.45 16.806C281.114 17.282 280.946 17.9213 280.946 18.724V22H279.994V11.836H280.946V16.54C281.17 16.12 281.464 15.798 281.828 15.574C282.201 15.3407 282.631 15.224 283.116 15.224ZM291.449 15.224C292.074 15.224 292.629 15.3733 293.115 15.672C293.609 15.9707 293.992 16.386 294.263 16.918C294.543 17.4407 294.683 18.038 294.683 18.71C294.683 19.3913 294.543 19.998 294.263 20.53C293.983 21.062 293.595 21.4773 293.101 21.776C292.606 22.0747 292.046 22.224 291.421 22.224C290.954 22.224 290.525 22.1213 290.133 21.916C289.741 21.7013 289.409 21.4073 289.139 21.034V22H288.187V11.836H289.139V16.428C289.409 16.0453 289.741 15.7513 290.133 15.546C290.534 15.3313 290.973 15.224 291.449 15.224ZM291.449 21.356C291.887 21.356 292.279 21.244 292.625 21.02C292.97 20.796 293.241 20.4833 293.437 20.082C293.633 19.6807 293.731 19.2233 293.731 18.71C293.731 18.206 293.633 17.758 293.437 17.366C293.241 16.9647 292.97 16.652 292.625 16.428C292.279 16.204 291.887 16.092 291.449 16.092C291.001 16.092 290.599 16.204 290.245 16.428C289.899 16.652 289.629 16.9647 289.433 17.366C289.237 17.7673 289.139 18.22 289.139 18.724C289.139 19.228 289.237 19.6807 289.433 20.082C289.629 20.4833 289.899 20.796 290.245 21.02C290.599 21.244 291.001 21.356 291.449 21.356ZM299.576 22.224C298.951 22.224 298.391 22.0747 297.896 21.776C297.402 21.4773 297.014 21.062 296.734 20.53C296.454 19.9887 296.314 19.382 296.314 18.71C296.314 18.038 296.45 17.4407 296.72 16.918C297 16.386 297.383 15.9707 297.868 15.672C298.363 15.3733 298.923 15.224 299.548 15.224C300.174 15.224 300.734 15.3733 301.228 15.672C301.723 15.9707 302.11 16.386 302.39 16.918C302.67 17.45 302.81 18.052 302.81 18.724C302.81 19.396 302.67 19.998 302.39 20.53C302.12 21.062 301.737 21.4773 301.242 21.776C300.757 22.0747 300.202 22.224 299.576 22.224ZM299.548 21.356C299.996 21.356 300.393 21.244 300.738 21.02C301.093 20.796 301.368 20.4833 301.564 20.082C301.76 19.6807 301.858 19.228 301.858 18.724C301.858 18.22 301.76 17.7673 301.564 17.366C301.368 16.9647 301.093 16.652 300.738 16.428C300.393 16.204 299.996 16.092 299.548 16.092C299.11 16.092 298.718 16.204 298.372 16.428C298.027 16.652 297.756 16.9647 297.56 17.366C297.364 17.758 297.266 18.206 297.266 18.71C297.266 19.2233 297.364 19.6807 297.56 20.082C297.756 20.4833 298.027 20.796 298.372 21.02C298.718 21.244 299.11 21.356 299.548 21.356ZM310.612 15.448V22H309.66V20.908C309.436 21.328 309.137 21.6547 308.764 21.888C308.4 22.112 307.975 22.224 307.49 22.224C307.032 22.224 306.608 22.1307 306.216 21.944C305.833 21.7573 305.525 21.482 305.292 21.118C305.068 20.754 304.956 20.3247 304.956 19.83V15.448H305.908V19.41C305.908 20.7073 306.486 21.356 307.644 21.356C308.316 21.356 308.82 21.118 309.156 20.642C309.492 20.166 309.66 19.5267 309.66 18.724V15.448H310.612ZM316.297 15.224C316.521 15.224 316.736 15.2567 316.941 15.322V16.19C316.745 16.0967 316.531 16.05 316.297 16.05C315.896 16.05 315.523 16.162 315.177 16.386C314.832 16.61 314.552 16.9367 314.337 17.366C314.132 17.786 314.029 18.2853 314.029 18.864V22H313.077V15.448H314.029V16.764C314.281 16.2787 314.599 15.9007 314.981 15.63C315.373 15.3593 315.812 15.224 316.297 15.224ZM321.643 15.224C322.101 15.224 322.521 15.3173 322.903 15.504C323.295 15.6907 323.603 15.966 323.827 16.33C324.061 16.694 324.177 17.1233 324.177 17.618V22H323.225V18.038C323.225 16.7407 322.647 16.092 321.489 16.092C320.817 16.092 320.313 16.33 319.977 16.806C319.641 17.282 319.473 17.9213 319.473 18.724V22H318.521V11.836H319.473V16.54C319.697 16.12 319.991 15.798 320.355 15.574C320.729 15.3407 321.158 15.224 321.643 15.224ZM329.556 22.224C328.931 22.224 328.371 22.0747 327.876 21.776C327.381 21.4773 326.994 21.062 326.714 20.53C326.434 19.9887 326.294 19.382 326.294 18.71C326.294 18.038 326.429 17.4407 326.7 16.918C326.98 16.386 327.363 15.9707 327.848 15.672C328.343 15.3733 328.903 15.224 329.528 15.224C330.153 15.224 330.713 15.3733 331.208 15.672C331.703 15.9707 332.09 16.386 332.37 16.918C332.65 17.45 332.79 18.052 332.79 18.724C332.79 19.396 332.65 19.998 332.37 20.53C332.099 21.062 331.717 21.4773 331.222 21.776C330.737 22.0747 330.181 22.224 329.556 22.224ZM329.528 21.356C329.976 21.356 330.373 21.244 330.718 21.02C331.073 20.796 331.348 20.4833 331.544 20.082C331.74 19.6807 331.838 19.228 331.838 18.724C331.838 18.22 331.74 17.7673 331.544 17.366C331.348 16.9647 331.073 16.652 330.718 16.428C330.373 16.204 329.976 16.092 329.528 16.092C329.089 16.092 328.697 16.204 328.352 16.428C328.007 16.652 327.736 16.9647 327.54 17.366C327.344 17.758 327.246 18.206 327.246 18.71C327.246 19.2233 327.344 19.6807 327.54 20.082C327.736 20.4833 328.007 20.796 328.352 21.02C328.697 21.244 329.089 21.356 329.528 21.356ZM337.693 22.224C337.068 22.224 336.508 22.0747 336.013 21.776C335.519 21.4773 335.131 21.062 334.851 20.53C334.571 19.9887 334.431 19.382 334.431 18.71C334.431 18.038 334.567 17.4407 334.837 16.918C335.117 16.386 335.5 15.9707 335.985 15.672C336.48 15.3733 337.04 15.224 337.665 15.224C338.291 15.224 338.851 15.3733 339.345 15.672C339.84 15.9707 340.227 16.386 340.507 16.918C340.787 17.45 340.927 18.052 340.927 18.724C340.927 19.396 340.787 19.998 340.507 20.53C340.237 21.062 339.854 21.4773 339.359 21.776C338.874 22.0747 338.319 22.224 337.693 22.224ZM337.665 21.356C338.113 21.356 338.51 21.244 338.855 21.02C339.21 20.796 339.485 20.4833 339.681 20.082C339.877 19.6807 339.975 19.228 339.975 18.724C339.975 18.22 339.877 17.7673 339.681 17.366C339.485 16.9647 339.21 16.652 338.855 16.428C338.51 16.204 338.113 16.092 337.665 16.092C337.227 16.092 336.835 16.204 336.489 16.428C336.144 16.652 335.873 16.9647 335.677 17.366C335.481 17.758 335.383 18.206 335.383 18.71C335.383 19.2233 335.481 19.6807 335.677 20.082C335.873 20.4833 336.144 20.796 336.489 21.02C336.835 21.244 337.227 21.356 337.665 21.356ZM349.065 11.836V22H348.113V21.034C347.842 21.4073 347.511 21.7013 347.119 21.916C346.727 22.1213 346.298 22.224 345.831 22.224C345.206 22.224 344.646 22.0747 344.151 21.776C343.656 21.4773 343.269 21.062 342.989 20.53C342.709 19.998 342.569 19.3913 342.569 18.71C342.569 18.038 342.704 17.4407 342.975 16.918C343.255 16.386 343.638 15.9707 344.123 15.672C344.618 15.3733 345.178 15.224 345.803 15.224C346.279 15.224 346.713 15.3313 347.105 15.546C347.506 15.7513 347.842 16.0453 348.113 16.428V11.836H349.065ZM345.803 21.356C346.251 21.356 346.648 21.244 346.993 21.02C347.348 20.796 347.623 20.4833 347.819 20.082C348.015 19.6807 348.113 19.228 348.113 18.724C348.113 18.22 348.015 17.7673 347.819 17.366C347.623 16.9647 347.348 16.652 346.993 16.428C346.648 16.204 346.251 16.092 345.803 16.092C345.364 16.092 344.972 16.204 344.627 16.428C344.282 16.652 344.011 16.9647 343.815 17.366C343.619 17.758 343.521 18.206 343.521 18.71C343.521 19.2233 343.619 19.6807 343.815 20.082C344.011 20.4833 344.282 20.796 344.627 21.02C344.972 21.244 345.364 21.356 345.803 21.356ZM143.298 40.224C142.495 40.224 141.8 40.028 141.212 39.636C140.633 39.2347 140.185 38.6653 139.868 37.928C139.56 37.1813 139.406 36.29 139.406 35.254C139.406 34.2087 139.56 33.3127 139.868 32.566C140.185 31.81 140.633 31.236 141.212 30.844C141.8 30.4427 142.495 30.242 143.298 30.242C144.035 30.242 144.67 30.41 145.202 30.746C145.743 31.0727 146.205 31.558 146.588 32.202L145.762 32.79C145.174 31.726 144.353 31.194 143.298 31.194C142.421 31.194 141.735 31.5533 141.24 32.272C140.755 32.9813 140.512 33.9707 140.512 35.24C140.512 36.5 140.759 37.4893 141.254 38.208C141.749 38.9173 142.43 39.272 143.298 39.272C143.783 39.272 144.217 39.1553 144.6 38.922C144.992 38.6887 145.3 38.3433 145.524 37.886C145.748 37.4287 145.86 36.8687 145.86 36.206H143.606V35.338H146.896V36.206C146.896 37.074 146.742 37.8113 146.434 38.418C146.126 39.0153 145.697 39.468 145.146 39.776C144.605 40.0747 143.989 40.224 143.298 40.224ZM152.292 33.224C152.516 33.224 152.731 33.2567 152.936 33.322V34.19C152.74 34.0967 152.526 34.05 152.292 34.05C151.891 34.05 151.518 34.162 151.172 34.386C150.827 34.61 150.547 34.9367 150.332 35.366C150.127 35.786 150.024 36.2853 150.024 36.864V40H149.072V33.448H150.024V34.764C150.276 34.2787 150.594 33.9007 150.976 33.63C151.368 33.3593 151.807 33.224 152.292 33.224ZM157.236 40.224C156.61 40.224 156.05 40.0747 155.556 39.776C155.061 39.4773 154.674 39.062 154.394 38.53C154.114 37.9887 153.974 37.382 153.974 36.71C153.974 36.038 154.109 35.4407 154.38 34.918C154.66 34.386 155.042 33.9707 155.528 33.672C156.022 33.3733 156.582 33.224 157.208 33.224C157.833 33.224 158.393 33.3733 158.888 33.672C159.382 33.9707 159.77 34.386 160.05 34.918C160.33 35.45 160.47 36.052 160.47 36.724C160.47 37.396 160.33 37.998 160.05 38.53C159.779 39.062 159.396 39.4773 158.902 39.776C158.416 40.0747 157.861 40.224 157.236 40.224ZM157.208 39.356C157.656 39.356 158.052 39.244 158.398 39.02C158.752 38.796 159.028 38.4833 159.224 38.082C159.42 37.6807 159.518 37.228 159.518 36.724C159.518 36.22 159.42 35.7673 159.224 35.366C159.028 34.9647 158.752 34.652 158.398 34.428C158.052 34.204 157.656 34.092 157.208 34.092C156.769 34.092 156.377 34.204 156.032 34.428C155.686 34.652 155.416 34.9647 155.22 35.366C155.024 35.758 154.926 36.206 154.926 36.71C154.926 37.2233 155.024 37.6807 155.22 38.082C155.416 38.4833 155.686 38.796 156.032 39.02C156.377 39.244 156.769 39.356 157.208 39.356ZM168.271 33.448V40H167.319V38.908C167.095 39.328 166.796 39.6547 166.423 39.888C166.059 40.112 165.634 40.224 165.149 40.224C164.692 40.224 164.267 40.1307 163.875 39.944C163.492 39.7573 163.184 39.482 162.951 39.118C162.727 38.754 162.615 38.3247 162.615 37.83V33.448H163.567V37.41C163.567 38.7073 164.146 39.356 165.303 39.356C165.975 39.356 166.479 39.118 166.815 38.642C167.151 38.166 167.319 37.5267 167.319 36.724V33.448H168.271ZM173.985 33.224C174.61 33.224 175.17 33.3733 175.665 33.672C176.159 33.9707 176.547 34.386 176.827 34.918C177.107 35.45 177.247 36.0567 177.247 36.738C177.247 37.41 177.107 38.012 176.827 38.544C176.556 39.0667 176.173 39.4773 175.679 39.776C175.193 40.0747 174.638 40.224 174.013 40.224C173.537 40.224 173.098 40.1213 172.697 39.916C172.305 39.7013 171.973 39.4027 171.703 39.02V42.8H170.751V33.448H171.703V34.414C171.973 34.0407 172.305 33.7513 172.697 33.546C173.089 33.3313 173.518 33.224 173.985 33.224ZM174.013 39.356C174.451 39.356 174.843 39.244 175.189 39.02C175.534 38.796 175.805 38.488 176.001 38.096C176.197 37.6947 176.295 37.242 176.295 36.738C176.295 36.2247 176.197 35.7673 176.001 35.366C175.805 34.9647 175.534 34.652 175.189 34.428C174.843 34.204 174.451 34.092 174.013 34.092C173.565 34.092 173.163 34.204 172.809 34.428C172.463 34.652 172.193 34.9647 171.997 35.366C171.801 35.7673 171.703 36.22 171.703 36.724C171.703 37.228 171.801 37.6807 171.997 38.082C172.193 38.4833 172.463 38.796 172.809 39.02C173.163 39.244 173.565 39.356 174.013 39.356ZM181.594 40.224C180.96 40.224 180.4 40.0887 179.914 39.818C179.438 39.5473 179.074 39.1647 178.822 38.67L179.676 38.25C180.022 38.9873 180.698 39.356 181.706 39.356C182.192 39.356 182.593 39.2673 182.91 39.09C183.228 38.9127 183.386 38.6373 183.386 38.264C183.386 37.8813 183.256 37.5967 182.994 37.41C182.742 37.2233 182.294 37.102 181.65 37.046C180.754 36.9713 180.11 36.7707 179.718 36.444C179.336 36.1173 179.144 35.6833 179.144 35.142C179.144 34.5353 179.364 34.064 179.802 33.728C180.241 33.392 180.843 33.224 181.608 33.224C182.906 33.224 183.788 33.7373 184.254 34.764L183.4 35.184C183.242 34.8107 183.008 34.5353 182.7 34.358C182.402 34.1807 182.014 34.092 181.538 34.092C181.053 34.092 180.68 34.1807 180.418 34.358C180.166 34.5353 180.04 34.7873 180.04 35.114C180.04 35.422 180.176 35.674 180.446 35.87C180.726 36.0567 181.202 36.178 181.874 36.234C182.705 36.3087 183.321 36.514 183.722 36.85C184.133 37.1767 184.338 37.6107 184.338 38.152C184.338 38.5907 184.212 38.9687 183.96 39.286C183.708 39.594 183.372 39.8273 182.952 39.986C182.532 40.1447 182.08 40.224 181.594 40.224ZM196.386 33.448V40H195.434V39.034C195.163 39.4073 194.832 39.7013 194.44 39.916C194.048 40.1213 193.618 40.224 193.152 40.224C192.526 40.224 191.966 40.0747 191.472 39.776C190.977 39.4773 190.59 39.062 190.31 38.53C190.03 37.998 189.89 37.3913 189.89 36.71C189.89 36.038 190.025 35.4407 190.296 34.918C190.576 34.386 190.958 33.9707 191.444 33.672C191.938 33.3733 192.498 33.224 193.124 33.224C193.6 33.224 194.034 33.3313 194.426 33.546C194.827 33.7513 195.163 34.0453 195.434 34.428V33.448H196.386ZM193.124 39.356C193.572 39.356 193.968 39.244 194.314 39.02C194.668 38.796 194.944 38.4833 195.14 38.082C195.336 37.6807 195.434 37.228 195.434 36.724C195.434 36.22 195.336 35.7673 195.14 35.366C194.944 34.9647 194.668 34.652 194.314 34.428C193.968 34.204 193.572 34.092 193.124 34.092C192.685 34.092 192.293 34.204 191.948 34.428C191.602 34.652 191.332 34.9647 191.136 35.366C190.94 35.758 190.842 36.206 190.842 36.71C190.842 37.2233 190.94 37.6807 191.136 38.082C191.332 38.4833 191.602 38.796 191.948 39.02C192.293 39.244 192.685 39.356 193.124 39.356ZM201.965 33.224C202.423 33.224 202.843 33.3173 203.225 33.504C203.617 33.6907 203.925 33.966 204.149 34.33C204.383 34.694 204.499 35.1233 204.499 35.618V40H203.547V36.038C203.547 34.7407 202.969 34.092 201.811 34.092C201.139 34.092 200.635 34.33 200.299 34.806C199.963 35.282 199.795 35.9213 199.795 36.724V40H198.843V33.448H199.795V34.54C200.019 34.12 200.313 33.798 200.677 33.574C201.051 33.3407 201.48 33.224 201.965 33.224ZM213.153 29.836V40H212.201V39.034C211.93 39.4073 211.599 39.7013 211.207 39.916C210.815 40.1213 210.386 40.224 209.919 40.224C209.294 40.224 208.734 40.0747 208.239 39.776C207.744 39.4773 207.357 39.062 207.077 38.53C206.797 37.998 206.657 37.3913 206.657 36.71C206.657 36.038 206.792 35.4407 207.063 34.918C207.343 34.386 207.726 33.9707 208.211 33.672C208.706 33.3733 209.266 33.224 209.891 33.224C210.367 33.224 210.801 33.3313 211.193 33.546C211.594 33.7513 211.93 34.0453 212.201 34.428V29.836H213.153ZM209.891 39.356C210.339 39.356 210.736 39.244 211.081 39.02C211.436 38.796 211.711 38.4833 211.907 38.082C212.103 37.6807 212.201 37.228 212.201 36.724C212.201 36.22 212.103 35.7673 211.907 35.366C211.711 34.9647 211.436 34.652 211.081 34.428C210.736 34.204 210.339 34.092 209.891 34.092C209.452 34.092 209.06 34.204 208.715 34.428C208.37 34.652 208.099 34.9647 207.903 35.366C207.707 35.758 207.609 36.206 207.609 36.71C207.609 37.2233 207.707 37.6807 207.903 38.082C208.099 38.4833 208.37 38.796 208.715 39.02C209.06 39.244 209.452 39.356 209.891 39.356ZM223.418 40.224C222.624 40.224 221.915 40.014 221.29 39.594C220.674 39.1647 220.188 38.572 219.834 37.816C219.488 37.06 219.316 36.2013 219.316 35.24C219.316 34.2787 219.488 33.42 219.834 32.664C220.188 31.8987 220.674 31.306 221.29 30.886C221.915 30.4567 222.624 30.242 223.418 30.242C224.211 30.242 224.916 30.4567 225.532 30.886C226.157 31.306 226.642 31.8987 226.988 32.664C227.342 33.42 227.52 34.2833 227.52 35.254C227.52 36.2153 227.342 37.074 226.988 37.83C226.642 38.5767 226.157 39.1647 225.532 39.594C224.916 40.014 224.211 40.224 223.418 40.224ZM223.418 39.258C223.996 39.258 224.514 39.09 224.972 38.754C225.438 38.4087 225.802 37.9327 226.064 37.326C226.325 36.71 226.456 36.0147 226.456 35.24C226.456 34.4653 226.325 33.77 226.064 33.154C225.802 32.538 225.438 32.0573 224.972 31.712C224.514 31.3667 223.996 31.194 223.418 31.194C222.839 31.194 222.316 31.3667 221.85 31.712C221.392 32.0573 221.033 32.538 220.772 33.154C220.51 33.77 220.38 34.4653 220.38 35.24C220.38 36.0147 220.51 36.71 220.772 37.326C221.033 37.9327 221.392 38.4087 221.85 38.754C222.316 39.09 222.839 39.258 223.418 39.258ZM233.096 33.224C233.32 33.224 233.534 33.2567 233.74 33.322V34.19C233.544 34.0967 233.329 34.05 233.096 34.05C232.694 34.05 232.321 34.162 231.976 34.386C231.63 34.61 231.35 34.9367 231.136 35.366C230.93 35.786 230.828 36.2853 230.828 36.864V40H229.876V33.448H230.828V34.764C231.08 34.2787 231.397 33.9007 231.78 33.63C232.172 33.3593 232.61 33.224 233.096 33.224ZM241.41 33.448V39.748C241.41 40.336 241.289 40.8587 241.046 41.316C240.803 41.7827 240.463 42.1467 240.024 42.408C239.585 42.6693 239.086 42.8 238.526 42.8H235.81V41.932H238.526C239.095 41.932 239.557 41.7267 239.912 41.316C240.276 40.9053 240.458 40.3827 240.458 39.748V39.034C240.187 39.4073 239.856 39.7013 239.464 39.916C239.072 40.1213 238.643 40.224 238.176 40.224C237.551 40.224 236.991 40.0747 236.496 39.776C236.001 39.4773 235.614 39.062 235.334 38.53C235.054 37.998 234.914 37.3913 234.914 36.71C234.914 36.038 235.049 35.4407 235.32 34.918C235.6 34.386 235.983 33.9707 236.468 33.672C236.963 33.3733 237.523 33.224 238.148 33.224C238.624 33.224 239.058 33.3313 239.45 33.546C239.851 33.7513 240.187 34.0453 240.458 34.428V33.448H241.41ZM238.148 39.356C238.596 39.356 238.993 39.244 239.338 39.02C239.693 38.796 239.968 38.4833 240.164 38.082C240.36 37.6807 240.458 37.228 240.458 36.724C240.458 36.22 240.36 35.7673 240.164 35.366C239.968 34.9647 239.693 34.652 239.338 34.428C238.993 34.204 238.596 34.092 238.148 34.092C237.709 34.092 237.317 34.204 236.972 34.428C236.627 34.652 236.356 34.9647 236.16 35.366C235.964 35.758 235.866 36.206 235.866 36.71C235.866 37.2233 235.964 37.6807 236.16 38.082C236.356 38.4833 236.627 38.796 236.972 39.02C237.317 39.244 237.709 39.356 238.148 39.356ZM249.958 33.448V40H249.006V39.034C248.735 39.4073 248.404 39.7013 248.012 39.916C247.62 40.1213 247.19 40.224 246.724 40.224C246.098 40.224 245.538 40.0747 245.044 39.776C244.549 39.4773 244.162 39.062 243.882 38.53C243.602 37.998 243.462 37.3913 243.462 36.71C243.462 36.038 243.597 35.4407 243.868 34.918C244.148 34.386 244.53 33.9707 245.016 33.672C245.51 33.3733 246.07 33.224 246.696 33.224C247.172 33.224 247.606 33.3313 247.998 33.546C248.399 33.7513 248.735 34.0453 249.006 34.428V33.448H249.958ZM246.696 39.356C247.144 39.356 247.54 39.244 247.886 39.02C248.24 38.796 248.516 38.4833 248.712 38.082C248.908 37.6807 249.006 37.228 249.006 36.724C249.006 36.22 248.908 35.7673 248.712 35.366C248.516 34.9647 248.24 34.652 247.886 34.428C247.54 34.204 247.144 34.092 246.696 34.092C246.257 34.092 245.865 34.204 245.52 34.428C245.174 34.652 244.904 34.9647 244.708 35.366C244.512 35.758 244.414 36.206 244.414 36.71C244.414 37.2233 244.512 37.6807 244.708 38.082C244.904 38.4833 245.174 38.796 245.52 39.02C245.865 39.244 246.257 39.356 246.696 39.356ZM255.537 33.224C255.995 33.224 256.415 33.3173 256.797 33.504C257.189 33.6907 257.497 33.966 257.721 34.33C257.955 34.694 258.071 35.1233 258.071 35.618V40H257.119V36.038C257.119 34.7407 256.541 34.092 255.383 34.092C254.711 34.092 254.207 34.33 253.871 34.806C253.535 35.282 253.367 35.9213 253.367 36.724V40H252.415V33.448H253.367V34.54C253.591 34.12 253.885 33.798 254.249 33.574C254.623 33.3407 255.052 33.224 255.537 33.224ZM261.153 40V33.448H262.105V40H261.153ZM261.629 32.174C261.414 32.174 261.232 32.0993 261.083 31.95C260.943 31.8007 260.873 31.6187 260.873 31.404C260.873 31.1987 260.943 31.026 261.083 30.886C261.232 30.7367 261.414 30.662 261.629 30.662C261.834 30.662 262.011 30.7367 262.161 30.886C262.31 31.026 262.385 31.2033 262.385 31.418C262.385 31.6233 262.31 31.8007 262.161 31.95C262.011 32.0993 261.834 32.174 261.629 32.174ZM267.391 40.224C266.756 40.224 266.196 40.0887 265.711 39.818C265.235 39.5473 264.871 39.1647 264.619 38.67L265.473 38.25C265.818 38.9873 266.495 39.356 267.503 39.356C267.988 39.356 268.389 39.2673 268.707 39.09C269.024 38.9127 269.183 38.6373 269.183 38.264C269.183 37.8813 269.052 37.5967 268.791 37.41C268.539 37.2233 268.091 37.102 267.447 37.046C266.551 36.9713 265.907 36.7707 265.515 36.444C265.132 36.1173 264.941 35.6833 264.941 35.142C264.941 34.5353 265.16 34.064 265.599 33.728C266.037 33.392 266.639 33.224 267.405 33.224C268.702 33.224 269.584 33.7373 270.051 34.764L269.197 35.184C269.038 34.8107 268.805 34.5353 268.497 34.358C268.198 34.1807 267.811 34.092 267.335 34.092C266.849 34.092 266.476 34.1807 266.215 34.358C265.963 34.5353 265.837 34.7873 265.837 35.114C265.837 35.422 265.972 35.674 266.243 35.87C266.523 36.0567 266.999 36.178 267.671 36.234C268.501 36.3087 269.117 36.514 269.519 36.85C269.929 37.1767 270.135 37.6107 270.135 38.152C270.135 38.5907 270.009 38.9687 269.757 39.286C269.505 39.594 269.169 39.8273 268.749 39.986C268.329 40.1447 267.876 40.224 267.391 40.224ZM278.365 33.448V40H277.413V39.034C277.142 39.4073 276.811 39.7013 276.419 39.916C276.027 40.1213 275.598 40.224 275.131 40.224C274.506 40.224 273.946 40.0747 273.451 39.776C272.956 39.4773 272.569 39.062 272.289 38.53C272.009 37.998 271.869 37.3913 271.869 36.71C271.869 36.038 272.004 35.4407 272.275 34.918C272.555 34.386 272.938 33.9707 273.423 33.672C273.918 33.3733 274.478 33.224 275.103 33.224C275.579 33.224 276.013 33.3313 276.405 33.546C276.806 33.7513 277.142 34.0453 277.413 34.428V33.448H278.365ZM275.103 39.356C275.551 39.356 275.948 39.244 276.293 39.02C276.648 38.796 276.923 38.4833 277.119 38.082C277.315 37.6807 277.413 37.228 277.413 36.724C277.413 36.22 277.315 35.7673 277.119 35.366C276.923 34.9647 276.648 34.652 276.293 34.428C275.948 34.204 275.551 34.092 275.103 34.092C274.664 34.092 274.272 34.204 273.927 34.428C273.582 34.652 273.311 34.9647 273.115 35.366C272.919 35.758 272.821 36.206 272.821 36.71C272.821 37.2233 272.919 37.6807 273.115 38.082C273.311 38.4833 273.582 38.796 273.927 39.02C274.272 39.244 274.664 39.356 275.103 39.356ZM281.173 40V34.316H280.053V33.448H281.173V31.278H282.125V33.448H283.637V34.316H282.125V40H281.173ZM285.896 40V33.448H286.848V40H285.896ZM286.372 32.174C286.157 32.174 285.975 32.0993 285.826 31.95C285.686 31.8007 285.616 31.6187 285.616 31.404C285.616 31.1987 285.686 31.026 285.826 30.886C285.975 30.7367 286.157 30.662 286.372 30.662C286.577 30.662 286.755 30.7367 286.904 30.886C287.053 31.026 287.128 31.2033 287.128 31.418C287.128 31.6233 287.053 31.8007 286.904 31.95C286.755 32.0993 286.577 32.174 286.372 32.174ZM292.68 40.224C292.055 40.224 291.495 40.0747 291 39.776C290.506 39.4773 290.118 39.062 289.838 38.53C289.558 37.9887 289.418 37.382 289.418 36.71C289.418 36.038 289.554 35.4407 289.824 34.918C290.104 34.386 290.487 33.9707 290.972 33.672C291.467 33.3733 292.027 33.224 292.652 33.224C293.278 33.224 293.838 33.3733 294.332 33.672C294.827 33.9707 295.214 34.386 295.494 34.918C295.774 35.45 295.914 36.052 295.914 36.724C295.914 37.396 295.774 37.998 295.494 38.53C295.224 39.062 294.841 39.4773 294.346 39.776C293.861 40.0747 293.306 40.224 292.68 40.224ZM292.652 39.356C293.1 39.356 293.497 39.244 293.842 39.02C294.197 38.796 294.472 38.4833 294.668 38.082C294.864 37.6807 294.962 37.228 294.962 36.724C294.962 36.22 294.864 35.7673 294.668 35.366C294.472 34.9647 294.197 34.652 293.842 34.428C293.497 34.204 293.1 34.092 292.652 34.092C292.214 34.092 291.822 34.204 291.476 34.428C291.131 34.652 290.86 34.9647 290.664 35.366C290.468 35.758 290.37 36.206 290.37 36.71C290.37 37.2233 290.468 37.6807 290.664 38.082C290.86 38.4833 291.131 38.796 291.476 39.02C291.822 39.244 292.214 39.356 292.652 39.356ZM301.084 33.224C301.541 33.224 301.961 33.3173 302.344 33.504C302.736 33.6907 303.044 33.966 303.268 34.33C303.501 34.694 303.618 35.1233 303.618 35.618V40H302.666V36.038C302.666 34.7407 302.087 34.092 300.93 34.092C300.258 34.092 299.754 34.33 299.418 34.806C299.082 35.282 298.914 35.9213 298.914 36.724V40H297.962V33.448H298.914V34.54C299.138 34.12 299.432 33.798 299.796 33.574C300.169 33.3407 300.598 33.224 301.084 33.224ZM308.491 40.224C307.857 40.224 307.297 40.0887 306.811 39.818C306.335 39.5473 305.971 39.1647 305.719 38.67L306.573 38.25C306.919 38.9873 307.595 39.356 308.603 39.356C309.089 39.356 309.49 39.2673 309.807 39.09C310.125 38.9127 310.283 38.6373 310.283 38.264C310.283 37.8813 310.153 37.5967 309.891 37.41C309.639 37.2233 309.191 37.102 308.547 37.046C307.651 36.9713 307.007 36.7707 306.615 36.444C306.233 36.1173 306.041 35.6833 306.041 35.142C306.041 34.5353 306.261 34.064 306.699 33.728C307.138 33.392 307.74 33.224 308.505 33.224C309.803 33.224 310.685 33.7373 311.151 34.764L310.297 35.184C310.139 34.8107 309.905 34.5353 309.597 34.358C309.299 34.1807 308.911 34.092 308.435 34.092C307.95 34.092 307.577 34.1807 307.315 34.358C307.063 34.5353 306.937 34.7873 306.937 35.114C306.937 35.422 307.073 35.674 307.343 35.87C307.623 36.0567 308.099 36.178 308.771 36.234C309.602 36.3087 310.218 36.514 310.619 36.85C311.03 37.1767 311.235 37.6107 311.235 38.152C311.235 38.5907 311.109 38.9687 310.857 39.286C310.605 39.594 310.269 39.8273 309.849 39.986C309.429 40.1447 308.977 40.224 308.491 40.224Z" fill="black"/>
</svg>
